<svg xmlns="http://www.w3.org/2000/svg" xmlns:xlink="http://www.w3.org/1999/xlink" version="1.1" x="0px" y="0px" viewBox="0 0 52 65" enable-background="new 0 0 52 52" xml:space="preserve"><g><g><path d="M11.197876,38.0414772c0.6500244,2.1900024,2.6900024,3.710022,4.9700317,3.710022h21.7299805    c2.2800293,0,4.3200073-1.5200195,4.9700317-3.710022l2.25-7.5599995    c0.0899658-0.2999878,0.0299683-0.6300049-0.1600342-0.8800049c-0.1900024-0.2600098-0.4899902-0.4099731-0.7999878-0.4099731    H29.5048828v-5.3996582l11.9830322-2.7703857c0.3299561-0.0799561,0.5999756-0.3199463,0.7099609-0.6499634    c0.1199951-0.3200073,0.0599976-0.6799927-0.1499634-0.9500122L29.2879028,3.2114587    c-0.2600098-0.3399658-0.710022-0.4699707-1.1099854-0.3299561c-0.4000244,0.1399536-0.6700439,0.5199585-0.6700439,0.9499512    V15.09659c-0.000061,0.005249-0.0029907,0.0095825-0.0029907,0.0148315v14.0800781H9.9078979    c-0.3200073,0-0.6099854,0.1499634-0.7999878,0.4099731c-0.1900024,0.25-0.25,0.5800171-0.1600342,0.8800049L11.197876,38.0414772    z"/></g><g><path d="M12.8078613,25.3714924h9.9000244c0.3200073,0,0.6199951-0.1500244,0.7999878-0.4000244    c0.1900024-0.2600098,0.25-0.5899658,0.1600342-0.8900146c-0.0300293-0.0799561-2.3500366-7.9299927,1.0899658-15.6900024    c0.1799927-0.3999629,0.0800171-0.8699946-0.25-1.1599727c-0.3399658-0.289978-0.8200073-0.3300171-1.1900024-0.0999756    c-0.4699707,0.2999878-11.4400024,7.2499995-11.5100098,17.2299805c0,0.2700195,0.1000366,0.5299683,0.2900391,0.7199707    C12.2879028,25.261507,12.5379028,25.3714924,12.8078613,25.3714924z"/></g><g><path d="M49.6152344,45.7540016c-1.0556641-0.824707-2.9101563-0.8251953-3.9677734-0.0004883l-1.4052734,1.0966797    c-0.5605469,0.4375-1.3144531,0.4379883-1.875-0.0004883l-1.2207031-0.9521484    c-1.2138672-0.9492188-3.1181641-0.949707-4.3359375-0.0004883l-1.2207031,0.953125    c-0.5605469,0.4375-1.3144722,0.4379883-1.875-0.0004883l-1.2207031-0.9521484    c-1.2148438-0.9492188-3.1191406-0.949707-4.3359375-0.0004883L26.9375,46.850193    c-0.5605469,0.4375-1.3144531,0.4379883-1.875-0.0004883l-1.2207031-0.9521484    c-1.2148438-0.9492188-3.1210938-0.9487305-4.3359375-0.0004883l-1.2207031,0.953125    c-0.5605469,0.4375-1.3144531,0.4379883-1.875-0.0004883l-1.2207031-0.9526367    c-1.2167969-0.9487305-3.1210938-0.9477539-4.3359375,0l-1.2207031,0.953125c-0.5605469,0.4375-1.3144531,0.4375-1.875,0    l-1.4042969-1.0966797c-1.0595703-0.824707-2.9130859-0.8242188-3.96875,0.0004883    c-0.4355469,0.3398438-0.5126953,0.9682617-0.1728516,1.4033203c0.3398438,0.4345703,0.9667969,0.512207,1.4033203,0.1728516    c0.3300781-0.2578125,1.1757813-0.2578125,1.5078125,0l1.4042969,1.0961914    c1.2773438,0.9970703,3.0605469,0.996582,4.3359375,0.0004883l1.2207031-0.953125    c0.4892578-0.3828125,1.3837891-0.3842773,1.875,0.0004883l1.2207031,0.9521484    c1.2773438,0.9970703,3.0605469,0.996582,4.3359375,0.0004883l1.2207031-0.953125    c0.4902344-0.3828125,1.3847656-0.3833008,1.875,0.0004883l1.2207031,0.9521484    c1.2773438,0.9970703,3.0605469,0.996582,4.3359375,0.0004883l1.2207031-0.9526367    c0.4902344-0.3837891,1.3847656-0.3837891,1.875,0l1.2207031,0.9521484    c1.2773438,0.9970703,3.0605469,0.996582,4.3359375,0.0004883l1.2207031-0.9526367    c0.4902344-0.3837891,1.3847656-0.3837891,1.875,0l1.2207031,0.9521484    c0.6386528,0.4985352,1.4033203,0.7475586,2.1679688,0.7475586s1.5292969-0.2490234,2.1679688-0.7470703l1.4052734-1.0966797    c0.3320313-0.2583008,1.1748047-0.2573242,1.5068359,0c0.4355469,0.340332,1.0634766,0.2617188,1.4033203-0.1728516    C50.1279297,46.7222633,50.0507813,46.0938454,49.6152344,45.7540016z"/></g></g><text x="0" y="67" fill="#000000" font-size="5px" font-weight="bold" font-family="'Helvetica Neue', Helvetica, Arial-Unicode, Arial, Sans-serif">Created by Graphic Tigers</text><text x="0" y="72" fill="#000000" font-size="5px" font-weight="bold" font-family="'Helvetica Neue', Helvetica, Arial-Unicode, Arial, Sans-serif">from the Noun Project</text></svg>